<mxfile host="app.diagrams.net" agent="Mozilla/5.0 (Windows NT 10.0; Win64; x64) AppleWebKit/537.36 (KHTML, like Gecko) Chrome/138.0.0.0 Safari/537.36 Edg/138.0.0.0" version="28.0.7">
  <diagram name="Page-1" id="fRBDCWR2OJLJG5ZRdutX">
    <mxGraphModel dx="2573" dy="2080" grid="1" gridSize="10" guides="1" tooltips="1" connect="1" arrows="1" fold="1" page="1" pageScale="1" pageWidth="850" pageHeight="1100" math="0" shadow="0">
      <root>
        <mxCell id="0" />
        <mxCell id="1" parent="0" />
        <mxCell id="rZBL0h5UeXgBfajkqojM-1" value="Student" style="whiteSpace=wrap;html=1;align=center;" parent="1" vertex="1">
          <mxGeometry x="-290" y="550" width="100" height="40" as="geometry" />
        </mxCell>
        <mxCell id="rZBL0h5UeXgBfajkqojM-2" value="Instructor" style="whiteSpace=wrap;html=1;align=center;" parent="1" vertex="1">
          <mxGeometry x="820" y="500" width="100" height="40" as="geometry" />
        </mxCell>
        <mxCell id="rZBL0h5UeXgBfajkqojM-3" value="Course" style="whiteSpace=wrap;html=1;align=center;" parent="1" vertex="1">
          <mxGeometry x="500" y="90" width="100" height="40" as="geometry" />
        </mxCell>
        <mxCell id="rZBL0h5UeXgBfajkqojM-4" value="Department" style="whiteSpace=wrap;html=1;align=center;" parent="1" vertex="1">
          <mxGeometry x="270" y="590" width="100" height="40" as="geometry" />
        </mxCell>
        <mxCell id="rZBL0h5UeXgBfajkqojM-5" value="Question" style="whiteSpace=wrap;html=1;align=center;" parent="1" vertex="1">
          <mxGeometry x="890" y="-170" width="100" height="40" as="geometry" />
        </mxCell>
        <mxCell id="rZBL0h5UeXgBfajkqojM-7" value="&lt;u&gt;CourseId&lt;/u&gt;" style="ellipse;whiteSpace=wrap;html=1;align=center;rotation=-30;" parent="1" vertex="1">
          <mxGeometry x="325" y="40" width="100" height="40" as="geometry" />
        </mxCell>
        <mxCell id="rZBL0h5UeXgBfajkqojM-13" value="&lt;u&gt;DepartmentId&lt;/u&gt;" style="ellipse;whiteSpace=wrap;html=1;align=center;" parent="1" vertex="1">
          <mxGeometry x="190" y="660" width="100" height="40" as="geometry" />
        </mxCell>
        <mxCell id="rZBL0h5UeXgBfajkqojM-14" value="&lt;u&gt;InstructorId&lt;/u&gt;" style="ellipse;whiteSpace=wrap;html=1;align=center;" parent="1" vertex="1">
          <mxGeometry x="720" y="570" width="100" height="40" as="geometry" />
        </mxCell>
        <mxCell id="rZBL0h5UeXgBfajkqojM-15" value="&lt;u&gt;QuestionId&lt;/u&gt;" style="ellipse;whiteSpace=wrap;html=1;align=center;" parent="1" vertex="1">
          <mxGeometry x="970" y="-260" width="100" height="40" as="geometry" />
        </mxCell>
        <mxCell id="rZBL0h5UeXgBfajkqojM-16" value="&lt;u&gt;StudentId&lt;/u&gt;" style="ellipse;whiteSpace=wrap;html=1;align=center;" parent="1" vertex="1">
          <mxGeometry x="-490" y="490" width="80" height="40" as="geometry" />
        </mxCell>
        <mxCell id="rZBL0h5UeXgBfajkqojM-17" value="Name" style="ellipse;whiteSpace=wrap;html=1;align=center;" parent="1" vertex="1">
          <mxGeometry x="-450" y="440" width="100" height="40" as="geometry" />
        </mxCell>
        <mxCell id="rZBL0h5UeXgBfajkqojM-18" value="DateOfBirth" style="ellipse;whiteSpace=wrap;html=1;align=center;" parent="1" vertex="1">
          <mxGeometry x="-385" y="390" width="100" height="40" as="geometry" />
        </mxCell>
        <mxCell id="rZBL0h5UeXgBfajkqojM-19" value="Hours" style="ellipse;whiteSpace=wrap;html=1;align=center;" parent="1" vertex="1">
          <mxGeometry x="520" y="-60" width="100" height="40" as="geometry" />
        </mxCell>
        <mxCell id="rZBL0h5UeXgBfajkqojM-20" value="Title" style="ellipse;whiteSpace=wrap;html=1;align=center;" parent="1" vertex="1">
          <mxGeometry x="465" y="10" width="100" height="40" as="geometry" />
        </mxCell>
        <mxCell id="rZBL0h5UeXgBfajkqojM-21" value="d" style="ellipse;whiteSpace=wrap;html=1;align=center;" parent="1" vertex="1">
          <mxGeometry x="930.74" width="20" height="20" as="geometry" />
        </mxCell>
        <mxCell id="rZBL0h5UeXgBfajkqojM-22" value="Name" style="ellipse;whiteSpace=wrap;html=1;align=center;" parent="1" vertex="1">
          <mxGeometry x="820" y="600" width="100" height="40" as="geometry" />
        </mxCell>
        <mxCell id="rZBL0h5UeXgBfajkqojM-24" value="Location" style="ellipse;whiteSpace=wrap;html=1;align=center;" parent="1" vertex="1">
          <mxGeometry x="350" y="660" width="100" height="40" as="geometry" />
        </mxCell>
        <mxCell id="rZBL0h5UeXgBfajkqojM-25" value="Name" style="ellipse;whiteSpace=wrap;html=1;align=center;" parent="1" vertex="1">
          <mxGeometry x="270" y="700" width="100" height="40" as="geometry" />
        </mxCell>
        <mxCell id="rZBL0h5UeXgBfajkqojM-26" value="Salary" style="ellipse;whiteSpace=wrap;html=1;align=center;" parent="1" vertex="1">
          <mxGeometry x="915" y="570" width="100" height="40" as="geometry" />
        </mxCell>
        <mxCell id="rZBL0h5UeXgBfajkqojM-27" value="Choices" style="ellipse;shape=doubleEllipse;margin=3;whiteSpace=wrap;html=1;align=center;" parent="1" vertex="1">
          <mxGeometry x="770" y="-230" width="100" height="40" as="geometry" />
        </mxCell>
        <mxCell id="rZBL0h5UeXgBfajkqojM-28" value="Age" style="ellipse;whiteSpace=wrap;html=1;align=center;dashed=1;" parent="1" vertex="1">
          <mxGeometry x="-290" y="410" width="100" height="60" as="geometry" />
        </mxCell>
        <mxCell id="rZBL0h5UeXgBfajkqojM-29" value="Has" style="shape=rhombus;perimeter=rhombusPerimeter;whiteSpace=wrap;html=1;align=center;" parent="1" vertex="1">
          <mxGeometry x="50" y="640" width="70" height="60" as="geometry" />
        </mxCell>
        <mxCell id="rZBL0h5UeXgBfajkqojM-30" value="" style="endArrow=none;html=1;rounded=0;exitX=0.25;exitY=0;exitDx=0;exitDy=0;entryX=0.5;entryY=1;entryDx=0;entryDy=0;" parent="1" source="rZBL0h5UeXgBfajkqojM-4" target="rZBL0h5UeXgBfajkqojM-29" edge="1">
          <mxGeometry relative="1" as="geometry">
            <mxPoint x="350" y="340" as="sourcePoint" />
            <mxPoint x="510" y="340" as="targetPoint" />
          </mxGeometry>
        </mxCell>
        <mxCell id="rZBL0h5UeXgBfajkqojM-31" value="1" style="resizable=0;html=1;whiteSpace=wrap;align=right;verticalAlign=bottom;" parent="rZBL0h5UeXgBfajkqojM-30" connectable="0" vertex="1">
          <mxGeometry x="1" relative="1" as="geometry" />
        </mxCell>
        <mxCell id="rZBL0h5UeXgBfajkqojM-32" value="" style="shape=link;html=1;rounded=0;exitX=1;exitY=1;exitDx=0;exitDy=0;entryX=0.5;entryY=0;entryDx=0;entryDy=0;" parent="1" source="rZBL0h5UeXgBfajkqojM-1" target="rZBL0h5UeXgBfajkqojM-29" edge="1">
          <mxGeometry relative="1" as="geometry">
            <mxPoint x="200" y="250" as="sourcePoint" />
            <mxPoint x="510" y="340" as="targetPoint" />
          </mxGeometry>
        </mxCell>
        <mxCell id="rZBL0h5UeXgBfajkqojM-33" value="N" style="resizable=0;html=1;whiteSpace=wrap;align=right;verticalAlign=bottom;" parent="rZBL0h5UeXgBfajkqojM-32" connectable="0" vertex="1">
          <mxGeometry x="1" relative="1" as="geometry" />
        </mxCell>
        <mxCell id="rZBL0h5UeXgBfajkqojM-34" value="has" style="shape=rhombus;perimeter=rhombusPerimeter;whiteSpace=wrap;html=1;align=center;" parent="1" vertex="1">
          <mxGeometry x="490" y="390" width="90" height="60" as="geometry" />
        </mxCell>
        <mxCell id="rZBL0h5UeXgBfajkqojM-35" value="" style="shape=link;html=1;rounded=0;exitX=0;exitY=0;exitDx=0;exitDy=0;entryX=1;entryY=0.5;entryDx=0;entryDy=0;" parent="1" source="rZBL0h5UeXgBfajkqojM-2" target="rZBL0h5UeXgBfajkqojM-34" edge="1">
          <mxGeometry relative="1" as="geometry">
            <mxPoint x="305" y="310" as="sourcePoint" />
            <mxPoint x="280" y="430" as="targetPoint" />
            <Array as="points" />
          </mxGeometry>
        </mxCell>
        <mxCell id="rZBL0h5UeXgBfajkqojM-36" value="N" style="resizable=0;html=1;whiteSpace=wrap;align=right;verticalAlign=bottom;" parent="rZBL0h5UeXgBfajkqojM-35" connectable="0" vertex="1">
          <mxGeometry x="1" relative="1" as="geometry" />
        </mxCell>
        <mxCell id="rZBL0h5UeXgBfajkqojM-37" value="" style="endArrow=none;html=1;rounded=0;exitX=0.75;exitY=0;exitDx=0;exitDy=0;entryX=0;entryY=0.5;entryDx=0;entryDy=0;" parent="1" source="rZBL0h5UeXgBfajkqojM-4" target="rZBL0h5UeXgBfajkqojM-34" edge="1">
          <mxGeometry relative="1" as="geometry">
            <mxPoint x="400" y="510" as="sourcePoint" />
            <mxPoint x="250" y="450" as="targetPoint" />
          </mxGeometry>
        </mxCell>
        <mxCell id="rZBL0h5UeXgBfajkqojM-38" value="1" style="resizable=0;html=1;whiteSpace=wrap;align=right;verticalAlign=bottom;" parent="rZBL0h5UeXgBfajkqojM-37" connectable="0" vertex="1">
          <mxGeometry x="1" relative="1" as="geometry" />
        </mxCell>
        <mxCell id="rZBL0h5UeXgBfajkqojM-39" value="Manage" style="shape=rhombus;perimeter=rhombusPerimeter;whiteSpace=wrap;html=1;align=center;" parent="1" vertex="1">
          <mxGeometry x="530" y="590" width="100" height="60" as="geometry" />
        </mxCell>
        <mxCell id="rZBL0h5UeXgBfajkqojM-40" value="" style="endArrow=none;html=1;rounded=0;exitX=0;exitY=0.5;exitDx=0;exitDy=0;entryX=1;entryY=0.5;entryDx=0;entryDy=0;" parent="1" source="rZBL0h5UeXgBfajkqojM-2" edge="1" target="rZBL0h5UeXgBfajkqojM-39">
          <mxGeometry relative="1" as="geometry">
            <mxPoint x="740" y="550" as="sourcePoint" />
            <mxPoint x="730" y="520" as="targetPoint" />
          </mxGeometry>
        </mxCell>
        <mxCell id="rZBL0h5UeXgBfajkqojM-41" value="1" style="resizable=0;html=1;whiteSpace=wrap;align=right;verticalAlign=bottom;" parent="rZBL0h5UeXgBfajkqojM-40" connectable="0" vertex="1">
          <mxGeometry x="1" relative="1" as="geometry" />
        </mxCell>
        <mxCell id="rZBL0h5UeXgBfajkqojM-42" value="" style="shape=link;html=1;rounded=0;exitX=1;exitY=0.5;exitDx=0;exitDy=0;entryX=0;entryY=0.5;entryDx=0;entryDy=0;" parent="1" source="rZBL0h5UeXgBfajkqojM-4" target="rZBL0h5UeXgBfajkqojM-39" edge="1">
          <mxGeometry relative="1" as="geometry">
            <mxPoint x="350" y="470" as="sourcePoint" />
            <mxPoint x="460" y="610" as="targetPoint" />
          </mxGeometry>
        </mxCell>
        <mxCell id="rZBL0h5UeXgBfajkqojM-43" value="1" style="resizable=0;html=1;whiteSpace=wrap;align=right;verticalAlign=bottom;" parent="rZBL0h5UeXgBfajkqojM-42" connectable="0" vertex="1">
          <mxGeometry x="1" relative="1" as="geometry" />
        </mxCell>
        <mxCell id="rZBL0h5UeXgBfajkqojM-45" value="" style="endArrow=none;html=1;rounded=0;exitX=0.5;exitY=1;exitDx=0;exitDy=0;entryX=0.5;entryY=0;entryDx=0;entryDy=0;" parent="1" source="rZBL0h5UeXgBfajkqojM-17" target="rZBL0h5UeXgBfajkqojM-1" edge="1">
          <mxGeometry relative="1" as="geometry">
            <mxPoint x="-170" y="660" as="sourcePoint" />
            <mxPoint x="-10" y="660" as="targetPoint" />
          </mxGeometry>
        </mxCell>
        <mxCell id="rZBL0h5UeXgBfajkqojM-46" value="" style="endArrow=none;html=1;rounded=0;exitX=0.5;exitY=1;exitDx=0;exitDy=0;entryX=0.25;entryY=0;entryDx=0;entryDy=0;" parent="1" source="rZBL0h5UeXgBfajkqojM-16" target="rZBL0h5UeXgBfajkqojM-1" edge="1">
          <mxGeometry relative="1" as="geometry">
            <mxPoint x="-170" y="660" as="sourcePoint" />
            <mxPoint x="-10" y="660" as="targetPoint" />
          </mxGeometry>
        </mxCell>
        <mxCell id="rZBL0h5UeXgBfajkqojM-47" value="" style="endArrow=none;html=1;rounded=0;exitX=0.5;exitY=1;exitDx=0;exitDy=0;entryX=0.75;entryY=0;entryDx=0;entryDy=0;" parent="1" source="rZBL0h5UeXgBfajkqojM-18" target="rZBL0h5UeXgBfajkqojM-1" edge="1">
          <mxGeometry relative="1" as="geometry">
            <mxPoint x="-290" y="460" as="sourcePoint" />
            <mxPoint x="26" y="693.6" as="targetPoint" />
          </mxGeometry>
        </mxCell>
        <mxCell id="rZBL0h5UeXgBfajkqojM-48" value="" style="endArrow=none;html=1;rounded=0;entryX=0.5;entryY=0;entryDx=0;entryDy=0;exitX=0.25;exitY=1;exitDx=0;exitDy=0;" parent="1" source="rZBL0h5UeXgBfajkqojM-2" target="rZBL0h5UeXgBfajkqojM-14" edge="1">
          <mxGeometry relative="1" as="geometry">
            <mxPoint x="560" y="380" as="sourcePoint" />
            <mxPoint x="780" y="490" as="targetPoint" />
          </mxGeometry>
        </mxCell>
        <mxCell id="rZBL0h5UeXgBfajkqojM-49" value="" style="endArrow=none;html=1;rounded=0;exitX=0.5;exitY=1;exitDx=0;exitDy=0;entryX=0.75;entryY=0;entryDx=0;entryDy=0;" parent="1" source="rZBL0h5UeXgBfajkqojM-28" target="rZBL0h5UeXgBfajkqojM-1" edge="1">
          <mxGeometry relative="1" as="geometry">
            <mxPoint x="-230" y="480" as="sourcePoint" />
            <mxPoint x="70" y="700" as="targetPoint" />
          </mxGeometry>
        </mxCell>
        <mxCell id="rZBL0h5UeXgBfajkqojM-50" value="" style="endArrow=none;html=1;rounded=0;entryX=0;entryY=0.5;entryDx=0;entryDy=0;exitX=0.5;exitY=0;exitDx=0;exitDy=0;" parent="1" source="rZBL0h5UeXgBfajkqojM-59" target="rZBL0h5UeXgBfajkqojM-21" edge="1">
          <mxGeometry relative="1" as="geometry">
            <mxPoint x="530.74" y="30" as="sourcePoint" />
            <mxPoint x="690.74" y="30" as="targetPoint" />
          </mxGeometry>
        </mxCell>
        <mxCell id="rZBL0h5UeXgBfajkqojM-51" value="" style="endArrow=none;html=1;rounded=0;entryX=0.5;entryY=1;entryDx=0;entryDy=0;exitX=0.5;exitY=0;exitDx=0;exitDy=0;" parent="1" source="rZBL0h5UeXgBfajkqojM-5" target="rZBL0h5UeXgBfajkqojM-60" edge="1">
          <mxGeometry relative="1" as="geometry">
            <mxPoint x="540" y="-30" as="sourcePoint" />
            <mxPoint x="700" y="-30" as="targetPoint" />
          </mxGeometry>
        </mxCell>
        <mxCell id="rZBL0h5UeXgBfajkqojM-52" value="" style="endArrow=none;html=1;rounded=0;entryX=0.5;entryY=1;entryDx=0;entryDy=0;exitX=0.25;exitY=0;exitDx=0;exitDy=0;" parent="1" source="rZBL0h5UeXgBfajkqojM-5" target="rZBL0h5UeXgBfajkqojM-27" edge="1">
          <mxGeometry relative="1" as="geometry">
            <mxPoint x="540" y="-30" as="sourcePoint" />
            <mxPoint x="700" y="-30" as="targetPoint" />
          </mxGeometry>
        </mxCell>
        <mxCell id="rZBL0h5UeXgBfajkqojM-53" value="" style="endArrow=none;html=1;rounded=0;entryX=0.5;entryY=1;entryDx=0;entryDy=0;exitX=0.75;exitY=0;exitDx=0;exitDy=0;" parent="1" source="rZBL0h5UeXgBfajkqojM-5" target="rZBL0h5UeXgBfajkqojM-15" edge="1">
          <mxGeometry relative="1" as="geometry">
            <mxPoint x="540" y="-30" as="sourcePoint" />
            <mxPoint x="700" y="-30" as="targetPoint" />
          </mxGeometry>
        </mxCell>
        <mxCell id="rZBL0h5UeXgBfajkqojM-54" value="" style="endArrow=none;html=1;rounded=0;exitX=0.5;exitY=1;exitDx=0;exitDy=0;entryX=0.897;entryY=-0.05;entryDx=0;entryDy=0;entryPerimeter=0;" parent="1" source="rZBL0h5UeXgBfajkqojM-19" target="rZBL0h5UeXgBfajkqojM-3" edge="1">
          <mxGeometry relative="1" as="geometry">
            <mxPoint x="510" y="230" as="sourcePoint" />
            <mxPoint x="690" y="110" as="targetPoint" />
          </mxGeometry>
        </mxCell>
        <mxCell id="rZBL0h5UeXgBfajkqojM-55" value="" style="endArrow=none;html=1;rounded=0;exitX=0.5;exitY=1;exitDx=0;exitDy=0;entryX=0.5;entryY=0;entryDx=0;entryDy=0;" parent="1" source="rZBL0h5UeXgBfajkqojM-20" target="rZBL0h5UeXgBfajkqojM-3" edge="1">
          <mxGeometry relative="1" as="geometry">
            <mxPoint x="530" y="240" as="sourcePoint" />
            <mxPoint x="690" y="240" as="targetPoint" />
          </mxGeometry>
        </mxCell>
        <mxCell id="rZBL0h5UeXgBfajkqojM-56" value="" style="endArrow=none;html=1;rounded=0;exitX=0.5;exitY=1;exitDx=0;exitDy=0;entryX=0;entryY=0;entryDx=0;entryDy=0;" parent="1" target="rZBL0h5UeXgBfajkqojM-3" edge="1">
          <mxGeometry relative="1" as="geometry">
            <mxPoint x="390" y="77.32050807568885" as="sourcePoint" />
            <mxPoint x="700" y="240" as="targetPoint" />
          </mxGeometry>
        </mxCell>
        <mxCell id="rZBL0h5UeXgBfajkqojM-57" value="" style="shape=link;html=1;rounded=0;entryX=0.5;entryY=0;entryDx=0;entryDy=0;exitX=0.5;exitY=1;exitDx=0;exitDy=0;" parent="1" source="rZBL0h5UeXgBfajkqojM-5" target="rZBL0h5UeXgBfajkqojM-21" edge="1">
          <mxGeometry relative="1" as="geometry">
            <mxPoint x="420" y="-10" as="sourcePoint" />
            <mxPoint x="580" y="-10" as="targetPoint" />
          </mxGeometry>
        </mxCell>
        <mxCell id="rZBL0h5UeXgBfajkqojM-59" value="MCQ" style="whiteSpace=wrap;html=1;align=center;" parent="1" vertex="1">
          <mxGeometry x="790.74" y="70" width="100" height="40" as="geometry" />
        </mxCell>
        <mxCell id="rZBL0h5UeXgBfajkqojM-60" value="Correct Answer" style="ellipse;whiteSpace=wrap;html=1;align=center;" parent="1" vertex="1">
          <mxGeometry x="890" y="-310" width="100" height="40" as="geometry" />
        </mxCell>
        <mxCell id="rZBL0h5UeXgBfajkqojM-61" value="TrueOrFalse" style="whiteSpace=wrap;html=1;align=center;" parent="1" vertex="1">
          <mxGeometry x="980.74" y="70" width="100" height="40" as="geometry" />
        </mxCell>
        <mxCell id="rZBL0h5UeXgBfajkqojM-62" value="" style="endArrow=none;html=1;rounded=0;exitX=1;exitY=0.5;exitDx=0;exitDy=0;entryX=0.5;entryY=0;entryDx=0;entryDy=0;" parent="1" source="rZBL0h5UeXgBfajkqojM-21" target="rZBL0h5UeXgBfajkqojM-61" edge="1">
          <mxGeometry relative="1" as="geometry">
            <mxPoint x="640.74" y="50" as="sourcePoint" />
            <mxPoint x="800.74" y="50" as="targetPoint" />
          </mxGeometry>
        </mxCell>
        <mxCell id="rZBL0h5UeXgBfajkqojM-63" value="" style="endArrow=none;html=1;rounded=0;entryX=0.75;entryY=1;entryDx=0;entryDy=0;exitX=0.5;exitY=0;exitDx=0;exitDy=0;" parent="1" source="rZBL0h5UeXgBfajkqojM-26" target="rZBL0h5UeXgBfajkqojM-2" edge="1">
          <mxGeometry relative="1" as="geometry">
            <mxPoint x="670" y="410" as="sourcePoint" />
            <mxPoint x="830" y="410" as="targetPoint" />
          </mxGeometry>
        </mxCell>
        <mxCell id="rZBL0h5UeXgBfajkqojM-64" value="" style="endArrow=none;html=1;rounded=0;entryX=0.5;entryY=1;entryDx=0;entryDy=0;exitX=0.5;exitY=0;exitDx=0;exitDy=0;" parent="1" source="rZBL0h5UeXgBfajkqojM-22" target="rZBL0h5UeXgBfajkqojM-2" edge="1">
          <mxGeometry relative="1" as="geometry">
            <mxPoint x="670" y="410" as="sourcePoint" />
            <mxPoint x="830" y="410" as="targetPoint" />
          </mxGeometry>
        </mxCell>
        <mxCell id="rZBL0h5UeXgBfajkqojM-65" value="" style="endArrow=none;html=1;rounded=0;entryX=0.5;entryY=0;entryDx=0;entryDy=0;exitX=0.5;exitY=1;exitDx=0;exitDy=0;" parent="1" source="rZBL0h5UeXgBfajkqojM-4" target="rZBL0h5UeXgBfajkqojM-25" edge="1">
          <mxGeometry relative="1" as="geometry">
            <mxPoint x="150" y="650" as="sourcePoint" />
            <mxPoint x="310" y="650" as="targetPoint" />
          </mxGeometry>
        </mxCell>
        <mxCell id="rZBL0h5UeXgBfajkqojM-66" value="" style="endArrow=none;html=1;rounded=0;entryX=0.5;entryY=0;entryDx=0;entryDy=0;exitX=0.75;exitY=1;exitDx=0;exitDy=0;" parent="1" source="rZBL0h5UeXgBfajkqojM-4" target="rZBL0h5UeXgBfajkqojM-24" edge="1">
          <mxGeometry relative="1" as="geometry">
            <mxPoint x="200" y="650" as="sourcePoint" />
            <mxPoint x="360" y="650" as="targetPoint" />
          </mxGeometry>
        </mxCell>
        <mxCell id="rZBL0h5UeXgBfajkqojM-67" value="" style="endArrow=none;html=1;rounded=0;entryX=0.25;entryY=1;entryDx=0;entryDy=0;exitX=0.5;exitY=0;exitDx=0;exitDy=0;" parent="1" source="rZBL0h5UeXgBfajkqojM-13" target="rZBL0h5UeXgBfajkqojM-4" edge="1">
          <mxGeometry relative="1" as="geometry">
            <mxPoint x="140" y="670" as="sourcePoint" />
            <mxPoint x="300" y="670" as="targetPoint" />
          </mxGeometry>
        </mxCell>
        <mxCell id="rZBL0h5UeXgBfajkqojM-68" value="Contains" style="shape=rhombus;perimeter=rhombusPerimeter;whiteSpace=wrap;html=1;align=center;" parent="1" vertex="1">
          <mxGeometry x="335" y="260" width="90" height="60" as="geometry" />
        </mxCell>
        <mxCell id="rZBL0h5UeXgBfajkqojM-69" value="" style="shape=link;html=1;rounded=0;entryX=0.5;entryY=0;entryDx=0;entryDy=0;exitX=0;exitY=1;exitDx=0;exitDy=0;" parent="1" source="rZBL0h5UeXgBfajkqojM-3" target="rZBL0h5UeXgBfajkqojM-68" edge="1">
          <mxGeometry relative="1" as="geometry">
            <mxPoint x="450" y="340" as="sourcePoint" />
            <mxPoint x="610" y="340" as="targetPoint" />
          </mxGeometry>
        </mxCell>
        <mxCell id="rZBL0h5UeXgBfajkqojM-70" value="N" style="resizable=0;html=1;whiteSpace=wrap;align=right;verticalAlign=bottom;" parent="rZBL0h5UeXgBfajkqojM-69" connectable="0" vertex="1">
          <mxGeometry x="1" relative="1" as="geometry" />
        </mxCell>
        <mxCell id="rZBL0h5UeXgBfajkqojM-71" value="" style="endArrow=none;html=1;rounded=0;exitX=0.5;exitY=0;exitDx=0;exitDy=0;entryX=0.5;entryY=1;entryDx=0;entryDy=0;" parent="1" source="rZBL0h5UeXgBfajkqojM-4" target="rZBL0h5UeXgBfajkqojM-68" edge="1">
          <mxGeometry relative="1" as="geometry">
            <mxPoint x="490" y="470" as="sourcePoint" />
            <mxPoint x="330" y="360" as="targetPoint" />
          </mxGeometry>
        </mxCell>
        <mxCell id="rZBL0h5UeXgBfajkqojM-72" value="1" style="resizable=0;html=1;whiteSpace=wrap;align=right;verticalAlign=bottom;" parent="rZBL0h5UeXgBfajkqojM-71" connectable="0" vertex="1">
          <mxGeometry x="1" relative="1" as="geometry" />
        </mxCell>
        <mxCell id="rZBL0h5UeXgBfajkqojM-73" value="Study" style="shape=rhombus;perimeter=rhombusPerimeter;whiteSpace=wrap;html=1;align=center;" parent="1" vertex="1">
          <mxGeometry x="150" y="210" width="90" height="60" as="geometry" />
        </mxCell>
        <mxCell id="rZBL0h5UeXgBfajkqojM-74" value="" style="shape=link;html=1;rounded=0;exitX=1;exitY=0.5;exitDx=0;exitDy=0;entryX=0;entryY=0.5;entryDx=0;entryDy=0;" parent="1" source="rZBL0h5UeXgBfajkqojM-1" target="rZBL0h5UeXgBfajkqojM-73" edge="1">
          <mxGeometry relative="1" as="geometry">
            <mxPoint x="450" y="340" as="sourcePoint" />
            <mxPoint x="610" y="340" as="targetPoint" />
          </mxGeometry>
        </mxCell>
        <mxCell id="rZBL0h5UeXgBfajkqojM-75" value="M" style="resizable=0;html=1;whiteSpace=wrap;align=left;verticalAlign=bottom;" parent="rZBL0h5UeXgBfajkqojM-74" connectable="0" vertex="1">
          <mxGeometry x="-1" relative="1" as="geometry" />
        </mxCell>
        <mxCell id="rZBL0h5UeXgBfajkqojM-76" value="N" style="resizable=0;html=1;whiteSpace=wrap;align=right;verticalAlign=bottom;" parent="rZBL0h5UeXgBfajkqojM-74" connectable="0" vertex="1">
          <mxGeometry x="1" relative="1" as="geometry" />
        </mxCell>
        <mxCell id="rZBL0h5UeXgBfajkqojM-77" value="" style="shape=link;html=1;rounded=0;exitX=0;exitY=0.5;exitDx=0;exitDy=0;entryX=1;entryY=0.5;entryDx=0;entryDy=0;" parent="1" source="rZBL0h5UeXgBfajkqojM-3" target="rZBL0h5UeXgBfajkqojM-73" edge="1">
          <mxGeometry relative="1" as="geometry">
            <mxPoint x="450" y="340" as="sourcePoint" />
            <mxPoint x="610" y="340" as="targetPoint" />
          </mxGeometry>
        </mxCell>
        <mxCell id="rZBL0h5UeXgBfajkqojM-78" value="M" style="resizable=0;html=1;whiteSpace=wrap;align=left;verticalAlign=bottom;" parent="rZBL0h5UeXgBfajkqojM-77" connectable="0" vertex="1">
          <mxGeometry x="-1" relative="1" as="geometry" />
        </mxCell>
        <mxCell id="rZBL0h5UeXgBfajkqojM-79" value="N" style="resizable=0;html=1;whiteSpace=wrap;align=right;verticalAlign=bottom;" parent="rZBL0h5UeXgBfajkqojM-77" connectable="0" vertex="1">
          <mxGeometry x="1" relative="1" as="geometry" />
        </mxCell>
        <mxCell id="rZBL0h5UeXgBfajkqojM-80" value="Teaches" style="shape=rhombus;perimeter=rhombusPerimeter;whiteSpace=wrap;html=1;align=center;" parent="1" vertex="1">
          <mxGeometry x="660" y="250" width="70" height="60" as="geometry" />
        </mxCell>
        <mxCell id="rZBL0h5UeXgBfajkqojM-82" value="" style="shape=link;html=1;rounded=0;exitX=1;exitY=1;exitDx=0;exitDy=0;entryX=0.5;entryY=0;entryDx=0;entryDy=0;" parent="1" source="rZBL0h5UeXgBfajkqojM-3" target="rZBL0h5UeXgBfajkqojM-80" edge="1">
          <mxGeometry relative="1" as="geometry">
            <mxPoint x="450" y="340" as="sourcePoint" />
            <mxPoint x="610" y="340" as="targetPoint" />
          </mxGeometry>
        </mxCell>
        <mxCell id="rZBL0h5UeXgBfajkqojM-83" value="M" style="resizable=0;html=1;whiteSpace=wrap;align=left;verticalAlign=bottom;" parent="rZBL0h5UeXgBfajkqojM-82" connectable="0" vertex="1">
          <mxGeometry x="-1" relative="1" as="geometry" />
        </mxCell>
        <mxCell id="rZBL0h5UeXgBfajkqojM-84" value="N" style="resizable=0;html=1;whiteSpace=wrap;align=right;verticalAlign=bottom;" parent="rZBL0h5UeXgBfajkqojM-82" connectable="0" vertex="1">
          <mxGeometry x="1" relative="1" as="geometry" />
        </mxCell>
        <mxCell id="rZBL0h5UeXgBfajkqojM-85" value="" style="endArrow=none;html=1;rounded=0;entryX=0.5;entryY=1;entryDx=0;entryDy=0;exitX=0.5;exitY=0;exitDx=0;exitDy=0;" parent="1" source="rZBL0h5UeXgBfajkqojM-2" target="rZBL0h5UeXgBfajkqojM-80" edge="1">
          <mxGeometry relative="1" as="geometry">
            <mxPoint x="450" y="340" as="sourcePoint" />
            <mxPoint x="610" y="340" as="targetPoint" />
          </mxGeometry>
        </mxCell>
        <mxCell id="rZBL0h5UeXgBfajkqojM-86" value="1" style="resizable=0;html=1;whiteSpace=wrap;align=right;verticalAlign=bottom;" parent="rZBL0h5UeXgBfajkqojM-85" connectable="0" vertex="1">
          <mxGeometry x="1" relative="1" as="geometry" />
        </mxCell>
        <mxCell id="rZBL0h5UeXgBfajkqojM-87" value="Has" style="shape=rhombus;perimeter=rhombusPerimeter;whiteSpace=wrap;html=1;align=center;" parent="1" vertex="1">
          <mxGeometry x="720" y="-60" width="60" height="60" as="geometry" />
        </mxCell>
        <mxCell id="rZBL0h5UeXgBfajkqojM-88" value="" style="shape=link;html=1;rounded=0;entryX=0;entryY=0.5;entryDx=0;entryDy=0;exitX=0.897;exitY=0.083;exitDx=0;exitDy=0;exitPerimeter=0;" parent="1" source="rZBL0h5UeXgBfajkqojM-3" target="rZBL0h5UeXgBfajkqojM-87" edge="1">
          <mxGeometry relative="1" as="geometry">
            <mxPoint x="450" y="340" as="sourcePoint" />
            <mxPoint x="610" y="340" as="targetPoint" />
          </mxGeometry>
        </mxCell>
        <mxCell id="rZBL0h5UeXgBfajkqojM-89" value="1" style="resizable=0;html=1;whiteSpace=wrap;align=right;verticalAlign=bottom;" parent="rZBL0h5UeXgBfajkqojM-88" connectable="0" vertex="1">
          <mxGeometry x="1" relative="1" as="geometry" />
        </mxCell>
        <mxCell id="rZBL0h5UeXgBfajkqojM-90" value="" style="shape=link;html=1;rounded=0;entryX=1;entryY=0.5;entryDx=0;entryDy=0;exitX=0;exitY=0.5;exitDx=0;exitDy=0;" parent="1" source="rZBL0h5UeXgBfajkqojM-5" edge="1">
          <mxGeometry relative="1" as="geometry">
            <mxPoint x="520" y="-10" as="sourcePoint" />
            <mxPoint x="780" y="-30" as="targetPoint" />
          </mxGeometry>
        </mxCell>
        <mxCell id="rZBL0h5UeXgBfajkqojM-91" value="M" style="resizable=0;html=1;whiteSpace=wrap;align=left;verticalAlign=bottom;" parent="rZBL0h5UeXgBfajkqojM-90" connectable="0" vertex="1">
          <mxGeometry x="-1" relative="1" as="geometry" />
        </mxCell>
        <mxCell id="rZBL0h5UeXgBfajkqojM-92" value="N" style="resizable=0;html=1;whiteSpace=wrap;align=right;verticalAlign=bottom;" parent="rZBL0h5UeXgBfajkqojM-90" connectable="0" vertex="1">
          <mxGeometry x="1" relative="1" as="geometry">
            <mxPoint y="60" as="offset" />
          </mxGeometry>
        </mxCell>
        <mxCell id="rZBL0h5UeXgBfajkqojM-93" value="MinDegree" style="ellipse;whiteSpace=wrap;html=1;align=center;" parent="1" vertex="1">
          <mxGeometry x="380" y="-20" width="100" height="40" as="geometry" />
        </mxCell>
        <mxCell id="rZBL0h5UeXgBfajkqojM-94" value="" style="endArrow=none;html=1;rounded=0;entryX=0.5;entryY=1;entryDx=0;entryDy=0;exitX=0.25;exitY=0;exitDx=0;exitDy=0;" parent="1" source="rZBL0h5UeXgBfajkqojM-3" target="rZBL0h5UeXgBfajkqojM-93" edge="1">
          <mxGeometry relative="1" as="geometry">
            <mxPoint x="530" y="80" as="sourcePoint" />
            <mxPoint x="520" y="10" as="targetPoint" />
          </mxGeometry>
        </mxCell>
        <mxCell id="rZBL0h5UeXgBfajkqojM-95" value="Answer" style="shape=rhombus;perimeter=rhombusPerimeter;whiteSpace=wrap;html=1;align=center;" parent="1" vertex="1">
          <mxGeometry x="240" y="-200" width="85" height="60" as="geometry" />
        </mxCell>
        <mxCell id="rZBL0h5UeXgBfajkqojM-96" value="" style="shape=link;html=1;rounded=0;entryX=0.25;entryY=0;entryDx=0;entryDy=0;exitX=1;exitY=0.5;exitDx=0;exitDy=0;" parent="1" source="rZBL0h5UeXgBfajkqojM-95" target="rZBL0h5UeXgBfajkqojM-5" edge="1">
          <mxGeometry relative="1" as="geometry">
            <mxPoint x="390" y="310" as="sourcePoint" />
            <mxPoint x="550" y="310" as="targetPoint" />
          </mxGeometry>
        </mxCell>
        <mxCell id="rZBL0h5UeXgBfajkqojM-97" value="M" style="resizable=0;html=1;whiteSpace=wrap;align=left;verticalAlign=bottom;" parent="rZBL0h5UeXgBfajkqojM-96" connectable="0" vertex="1">
          <mxGeometry x="-1" relative="1" as="geometry" />
        </mxCell>
        <mxCell id="rZBL0h5UeXgBfajkqojM-98" value="N" style="resizable=0;html=1;whiteSpace=wrap;align=right;verticalAlign=bottom;" parent="rZBL0h5UeXgBfajkqojM-96" connectable="0" vertex="1">
          <mxGeometry x="1" relative="1" as="geometry" />
        </mxCell>
        <mxCell id="rZBL0h5UeXgBfajkqojM-99" value="" style="endArrow=none;html=1;rounded=0;entryX=0;entryY=0.5;entryDx=0;entryDy=0;exitX=1.1;exitY=0;exitDx=0;exitDy=0;exitPerimeter=0;" parent="1" source="rZBL0h5UeXgBfajkqojM-1" target="rZBL0h5UeXgBfajkqojM-95" edge="1">
          <mxGeometry relative="1" as="geometry">
            <mxPoint x="300" y="90" as="sourcePoint" />
            <mxPoint x="550" y="290" as="targetPoint" />
            <Array as="points" />
          </mxGeometry>
        </mxCell>
        <mxCell id="rZBL0h5UeXgBfajkqojM-100" value="N" style="resizable=0;html=1;whiteSpace=wrap;align=right;verticalAlign=bottom;" parent="rZBL0h5UeXgBfajkqojM-99" connectable="0" vertex="1">
          <mxGeometry x="1" relative="1" as="geometry" />
        </mxCell>
        <mxCell id="1AgGO30O7LRqQ1ELM9kM-8" value="Esam" style="whiteSpace=wrap;html=1;align=center;" vertex="1" parent="1">
          <mxGeometry x="1270" y="520" width="100" height="40" as="geometry" />
        </mxCell>
        <mxCell id="1AgGO30O7LRqQ1ELM9kM-9" value="&lt;u&gt;ExamId&lt;/u&gt;" style="ellipse;whiteSpace=wrap;html=1;align=center;" vertex="1" parent="1">
          <mxGeometry x="1310" y="440" width="100" height="40" as="geometry" />
        </mxCell>
        <mxCell id="1AgGO30O7LRqQ1ELM9kM-10" value="Title" style="ellipse;whiteSpace=wrap;html=1;align=center;" vertex="1" parent="1">
          <mxGeometry x="1400" y="480" width="100" height="40" as="geometry" />
        </mxCell>
        <mxCell id="1AgGO30O7LRqQ1ELM9kM-13" value="" style="endArrow=none;html=1;rounded=0;exitX=0.5;exitY=1;exitDx=0;exitDy=0;entryX=1;entryY=0.5;entryDx=0;entryDy=0;" edge="1" parent="1" source="1AgGO30O7LRqQ1ELM9kM-10" target="1AgGO30O7LRqQ1ELM9kM-8">
          <mxGeometry relative="1" as="geometry">
            <mxPoint x="660" y="690" as="sourcePoint" />
            <mxPoint x="1390" y="540" as="targetPoint" />
          </mxGeometry>
        </mxCell>
        <mxCell id="1AgGO30O7LRqQ1ELM9kM-14" value="" style="endArrow=none;html=1;rounded=0;entryX=0.5;entryY=1;entryDx=0;entryDy=0;exitX=0.75;exitY=0;exitDx=0;exitDy=0;" edge="1" parent="1" source="1AgGO30O7LRqQ1ELM9kM-8" target="1AgGO30O7LRqQ1ELM9kM-9">
          <mxGeometry relative="1" as="geometry">
            <mxPoint x="820" y="680" as="sourcePoint" />
            <mxPoint x="980" y="680" as="targetPoint" />
          </mxGeometry>
        </mxCell>
        <mxCell id="1AgGO30O7LRqQ1ELM9kM-19" value="Made" style="shape=rhombus;perimeter=rhombusPerimeter;whiteSpace=wrap;html=1;align=center;" vertex="1" parent="1">
          <mxGeometry x="930" y="230" width="120" height="60" as="geometry" />
        </mxCell>
        <mxCell id="1AgGO30O7LRqQ1ELM9kM-24" value="" style="endArrow=none;html=1;rounded=0;exitX=1;exitY=0.5;exitDx=0;exitDy=0;entryX=0;entryY=0.5;entryDx=0;entryDy=0;" edge="1" parent="1" source="rZBL0h5UeXgBfajkqojM-3" target="1AgGO30O7LRqQ1ELM9kM-19">
          <mxGeometry relative="1" as="geometry">
            <mxPoint x="730" y="180" as="sourcePoint" />
            <mxPoint x="890" y="180" as="targetPoint" />
          </mxGeometry>
        </mxCell>
        <mxCell id="1AgGO30O7LRqQ1ELM9kM-25" value="N" style="resizable=0;html=1;whiteSpace=wrap;align=right;verticalAlign=bottom;" connectable="0" vertex="1" parent="1AgGO30O7LRqQ1ELM9kM-24">
          <mxGeometry x="1" relative="1" as="geometry" />
        </mxCell>
        <mxCell id="1AgGO30O7LRqQ1ELM9kM-26" value="" style="endArrow=none;html=1;rounded=0;entryX=1;entryY=0.25;entryDx=0;entryDy=0;exitX=0.5;exitY=1;exitDx=0;exitDy=0;" edge="1" parent="1" source="1AgGO30O7LRqQ1ELM9kM-19" target="rZBL0h5UeXgBfajkqojM-2">
          <mxGeometry relative="1" as="geometry">
            <mxPoint x="860" y="170" as="sourcePoint" />
            <mxPoint x="1020" y="170" as="targetPoint" />
          </mxGeometry>
        </mxCell>
        <mxCell id="1AgGO30O7LRqQ1ELM9kM-27" value="N" style="resizable=0;html=1;whiteSpace=wrap;align=right;verticalAlign=bottom;" connectable="0" vertex="1" parent="1AgGO30O7LRqQ1ELM9kM-26">
          <mxGeometry x="1" relative="1" as="geometry" />
        </mxCell>
        <mxCell id="1AgGO30O7LRqQ1ELM9kM-28" value="" style="endArrow=none;html=1;rounded=0;entryX=0;entryY=1;entryDx=0;entryDy=0;exitX=0.919;exitY=0.533;exitDx=0;exitDy=0;exitPerimeter=0;" edge="1" parent="1" source="1AgGO30O7LRqQ1ELM9kM-19" target="1AgGO30O7LRqQ1ELM9kM-8">
          <mxGeometry relative="1" as="geometry">
            <mxPoint x="860" y="170" as="sourcePoint" />
            <mxPoint x="1020" y="170" as="targetPoint" />
          </mxGeometry>
        </mxCell>
        <mxCell id="1AgGO30O7LRqQ1ELM9kM-29" value="N" style="resizable=0;html=1;whiteSpace=wrap;align=right;verticalAlign=bottom;" connectable="0" vertex="1" parent="1AgGO30O7LRqQ1ELM9kM-28">
          <mxGeometry x="1" relative="1" as="geometry" />
        </mxCell>
        <mxCell id="1AgGO30O7LRqQ1ELM9kM-30" value="Contains" style="shape=rhombus;perimeter=rhombusPerimeter;whiteSpace=wrap;html=1;align=center;" vertex="1" parent="1">
          <mxGeometry x="1050" y="-10" width="120" height="60" as="geometry" />
        </mxCell>
        <mxCell id="1AgGO30O7LRqQ1ELM9kM-34" value="" style="shape=link;html=1;rounded=0;exitX=1;exitY=1;exitDx=0;exitDy=0;entryX=0.5;entryY=0;entryDx=0;entryDy=0;" edge="1" parent="1" source="rZBL0h5UeXgBfajkqojM-5" target="1AgGO30O7LRqQ1ELM9kM-30">
          <mxGeometry relative="1" as="geometry">
            <mxPoint x="730" y="180" as="sourcePoint" />
            <mxPoint x="1050" y="90" as="targetPoint" />
          </mxGeometry>
        </mxCell>
        <mxCell id="1AgGO30O7LRqQ1ELM9kM-35" value="N" style="resizable=0;html=1;whiteSpace=wrap;align=right;verticalAlign=bottom;" connectable="0" vertex="1" parent="1AgGO30O7LRqQ1ELM9kM-34">
          <mxGeometry x="1" relative="1" as="geometry" />
        </mxCell>
        <mxCell id="1AgGO30O7LRqQ1ELM9kM-36" value="" style="shape=link;html=1;rounded=0;entryX=0.5;entryY=1;entryDx=0;entryDy=0;exitX=0;exitY=0;exitDx=0;exitDy=0;" edge="1" parent="1" source="1AgGO30O7LRqQ1ELM9kM-8" target="1AgGO30O7LRqQ1ELM9kM-30">
          <mxGeometry relative="1" as="geometry">
            <mxPoint x="730" y="180" as="sourcePoint" />
            <mxPoint x="890" y="180" as="targetPoint" />
          </mxGeometry>
        </mxCell>
        <mxCell id="1AgGO30O7LRqQ1ELM9kM-37" value="1" style="resizable=0;html=1;whiteSpace=wrap;align=right;verticalAlign=bottom;" connectable="0" vertex="1" parent="1AgGO30O7LRqQ1ELM9kM-36">
          <mxGeometry x="1" relative="1" as="geometry" />
        </mxCell>
        <mxCell id="1AgGO30O7LRqQ1ELM9kM-38" value="do" style="shape=rhombus;perimeter=rhombusPerimeter;whiteSpace=wrap;html=1;align=center;" vertex="1" parent="1">
          <mxGeometry x="550" y="870" width="120" height="60" as="geometry" />
        </mxCell>
        <mxCell id="1AgGO30O7LRqQ1ELM9kM-39" value="" style="endArrow=none;html=1;rounded=0;entryX=0.5;entryY=1;entryDx=0;entryDy=0;exitX=1;exitY=0.5;exitDx=0;exitDy=0;" edge="1" parent="1" source="1AgGO30O7LRqQ1ELM9kM-38" target="1AgGO30O7LRqQ1ELM9kM-8">
          <mxGeometry relative="1" as="geometry">
            <mxPoint x="490" y="510" as="sourcePoint" />
            <mxPoint x="650" y="510" as="targetPoint" />
          </mxGeometry>
        </mxCell>
        <mxCell id="1AgGO30O7LRqQ1ELM9kM-40" value="M" style="resizable=0;html=1;whiteSpace=wrap;align=left;verticalAlign=bottom;" connectable="0" vertex="1" parent="1AgGO30O7LRqQ1ELM9kM-39">
          <mxGeometry x="-1" relative="1" as="geometry" />
        </mxCell>
        <mxCell id="1AgGO30O7LRqQ1ELM9kM-41" value="N" style="resizable=0;html=1;whiteSpace=wrap;align=right;verticalAlign=bottom;" connectable="0" vertex="1" parent="1AgGO30O7LRqQ1ELM9kM-39">
          <mxGeometry x="1" relative="1" as="geometry" />
        </mxCell>
        <mxCell id="1AgGO30O7LRqQ1ELM9kM-42" value="" style="endArrow=none;html=1;rounded=0;entryX=0;entryY=0.5;entryDx=0;entryDy=0;exitX=0;exitY=1;exitDx=0;exitDy=0;" edge="1" parent="1" source="rZBL0h5UeXgBfajkqojM-1" target="1AgGO30O7LRqQ1ELM9kM-38">
          <mxGeometry relative="1" as="geometry">
            <mxPoint x="490" y="510" as="sourcePoint" />
            <mxPoint x="650" y="510" as="targetPoint" />
          </mxGeometry>
        </mxCell>
        <mxCell id="1AgGO30O7LRqQ1ELM9kM-43" value="M" style="resizable=0;html=1;whiteSpace=wrap;align=left;verticalAlign=bottom;" connectable="0" vertex="1" parent="1AgGO30O7LRqQ1ELM9kM-42">
          <mxGeometry x="-1" relative="1" as="geometry" />
        </mxCell>
        <mxCell id="1AgGO30O7LRqQ1ELM9kM-44" value="N" style="resizable=0;html=1;whiteSpace=wrap;align=right;verticalAlign=bottom;" connectable="0" vertex="1" parent="1AgGO30O7LRqQ1ELM9kM-42">
          <mxGeometry x="1" relative="1" as="geometry" />
        </mxCell>
      </root>
    </mxGraphModel>
  </diagram>
</mxfile>
